<?xml version="1.0" encoding="utf-8" ?><svg xmlns="http://www.w3.org/2000/svg" xmlns:xlink="http://www.w3.org/1999/xlink" width="534" height="534" viewBox="0 0 534 534"><path fill="#91533B" d="M15.352 5.06672C20.4332 4.90483 26.3509 5.08023 31.5326 5.08386L63.9554 5.08898L163.483 5.09539L224.508 5.09443L242.348 5.06048C246.682 5.04557 251.253 4.90116 255.544 5.31801C258.82 7.7093 262.522 9.04041 264.956 12.559C276.471 29.2063 285.088 47.6652 295.658 64.9265C302.209 75.6248 307.864 87.1341 313.718 98.2322C316.676 103.841 320.668 109.73 321.987 115.961C321.787 116.463 321.578 116.96 321.358 117.454C319.136 122.389 314.185 118.735 310.881 116.877C307.659 115.065 304.19 112.198 301.193 109.947L287.928 100C268.727 85.6263 249.833 70.8537 230.67 56.4328C223.956 51.3801 217.273 45.4987 209.648 41.8151C204.242 39.2038 195.719 38.9058 189.999 40.9039C183.022 43.7849 180.097 48.8163 179.714 56.0537C178.697 75.2376 197.669 82.8016 210.604 92.7025C218.762 98.9475 227.431 104.672 235.749 110.702C249.367 119.163 262.385 128.45 275.654 137.333C285.531 143.879 295.285 150.608 304.912 157.516C310.294 161.299 319.615 166.365 322.691 172.388C323.238 173.458 323.078 175.106 322.514 176.255C321.429 178.92 315.29 179.992 312.467 179.791C304.37 179.212 295.101 178.068 287.005 177.211C279.901 176.459 273.538 176.28 266.571 175.925C258.974 175.537 251.253 173.878 243.584 173.828C238.208 173.618 232.227 172.527 226.816 172.222C219.73 171.826 212.707 171.331 205.616 170.894C199.786 170.534 194.088 169.65 188.113 169.932C185.971 170.033 182.92 169.194 180.688 169.178C175.193 169.215 169.313 167.997 163.915 167.982C158.74 167.912 149.126 167.489 147.436 174.032C143.031 189.977 164.297 192.72 175.183 192.962C182.375 193.122 188.287 193.129 195.562 193.917C200.864 194.491 206.572 194.219 212.184 194.978C217.512 195.698 224.828 194.5 230.345 195.078C248.516 197.095 267.027 195.54 285.314 196.065C288.697 196.162 292.169 196.914 295.47 196.962C303.767 197.04 312.288 197.069 320.297 199.502C325.446 201.066 324.545 206.038 321.27 209.036C316.298 213.589 310.241 216.862 304.442 220.212L292.016 227.485C268.45 241.194 246.345 253.327 223.334 268.223C217.634 271.846 212.056 275.658 206.609 279.651C202.424 282.674 196.428 286.52 194.327 291.507C192.503 295.838 192.451 301.695 195.678 305.487C201.169 311.938 213.857 309.575 220.636 306.865C226.218 304.633 231.214 301.231 236.22 298.091C242.325 294.393 248.008 289.842 254.056 286.109C275.933 272.603 296.998 257.711 318.806 244.124C322.353 241.897 325.858 239.604 329.319 237.247C331.651 235.693 334.187 233.86 336.708 232.723C338.894 231.737 343.566 231.001 343.79 234.531C343.915 236.498 342.646 238.517 341.544 240.041C338.145 244.742 334.23 249.048 330.495 253.478C325.916 258.966 321.413 264.516 316.986 270.127C309.365 279.688 302.555 289.709 295.088 299.223L277.336 321.673C271.851 328.478 265.709 335.854 260.509 342.834C258.618 345.418 256.749 348.018 254.901 350.633C250.147 357.266 246.896 361.938 248.134 370.538C248.949 376.195 255.487 377.613 260.216 376.816C266.251 375.8 270.526 370.727 274.41 366.461C276.729 363.914 279.197 361.442 281.491 358.869C287.82 351.414 294.523 344.198 300.619 336.545C306.275 329.444 311.485 321.946 316.886 314.656C324.959 303.759 333.289 292.916 341.05 281.799C345.462 275.955 349.792 270.05 354.036 264.083C356.38 260.829 363.112 250.549 366.708 250.008C367.69 249.854 368.689 250.14 369.442 250.789C370.506 251.692 371.093 253.139 371.05 254.49C370.809 262.163 368.676 270.974 367.396 278.67C364.65 295.996 361.584 313.27 358.202 330.483L351.42 365.665C349.021 378.815 340.433 409.6 362.878 411.09C377.921 412.09 379.738 398.219 380.617 386.817C381.061 381.056 381.593 374.786 382.129 368.829L386.78 319.401C387.24 314.361 387.476 309.049 388.117 304.033C389.399 293.996 390.126 283.828 391.526 273.83C391.915 271.052 394.004 263.815 397.388 264.114C403.022 264.983 407.957 274.842 410.708 279.64C418.484 293.2 426.099 306.343 434.871 319.268C442.364 330.306 449.098 341.913 457.293 352.45C465.183 362.596 470.896 379.571 486.605 377.087C490.428 376.504 492.836 376.153 495.716 372.866C499.118 368.984 498.177 362.357 497.601 357.581C493.808 343.324 483.665 331.356 476.027 319.04C469.569 308.628 462.754 298.496 455.9 288.337C452.491 282.783 447.357 277.11 445.955 270.664C445.524 268.682 447.409 265.932 449.667 266.275C452.904 266.766 456.111 269.262 458.669 271.168C464.624 275.606 469.573 281.189 475.435 285.764C479.295 289.283 484.106 292.189 487.909 295.718C494.483 301.817 501.073 307.198 507.826 313.172C511.587 316.498 516.029 319.425 519.55 323.263C522.023 325.96 526.297 333.673 528.395 337.036C529.25 343.645 528.962 352.769 528.962 359.548L528.962 403.979L528.957 482.19L528.965 506.44C528.966 512.529 529.092 518.538 528.581 524.609C527.032 525.692 525.444 527.087 524.286 528.587C519.911 529.009 514.693 528.885 510.266 528.876L490.272 528.854L423.68 528.853L211.396 528.854L68.9293 528.857L29.9207 528.864C25.2834 528.867 13.8272 529.143 9.89394 528.468C8.44086 527.055 6.97846 525.651 5.50684 524.257C5.44162 523.751 5.38999 523.244 5.35201 522.735C4.82098 516.266 5.06848 507.697 5.07056 501.02L5.08546 464.234L5.08436 348.687L5.07841 126.593C5.07686 88.925 5.05859 51.2362 5.09662 13.5686C5.09865 11.5554 5.23013 9.91804 6.6722 8.4459C10.2072 4.83722 10.932 5.21253 15.352 5.06672ZM352.739 288.094C348.255 292.522 346.244 295.559 342.491 300.58L330.478 316.936C319.707 331.743 309.196 345.459 297.071 359.367C284.616 374.164 265.918 393.587 246.098 377.99C245.451 377.48 243.945 375.185 243.49 374.378C232.158 354.274 254.298 331.36 265.415 317.152L285.76 291.12C288.693 287.294 294.146 280.913 295.861 276.821C296.416 275.869 296.647 275.622 296.798 274.565L296.513 274.199C295.581 274.193 295.001 274.675 294.175 275.161C284.749 280.432 275.452 286.92 266.327 292.73C253.757 300.733 242.591 309.351 228.724 315.148C210.177 322.903 184.7 318.124 186.14 293.777C187.28 274.519 211.174 261.403 225.861 252.247C240.947 242.968 256.216 233.99 271.66 225.319L284.356 217.958C289.147 215.175 291.935 213.878 296.106 210.25C295.217 209.77 293.936 209.076 292.944 208.92C281.352 207.097 269.33 208.542 257.626 207.926C255.039 207.79 252.46 207.622 249.875 207.541L214.563 206.302C206.541 205.991 198.376 205.72 190.339 205.105C177.01 204.087 160.616 204.357 149.515 195.94C140.347 189.07 138.896 174.776 146.133 166.016C153.476 157.129 167.375 157.323 177.834 157.68C185.536 157.963 193.231 158.391 200.917 158.963C221.512 160.279 242.09 161.851 262.645 163.679L278.491 164.99C281.846 165.261 286.395 165.78 289.644 165.446C291.202 164.313 291.06 164.997 292.026 164.269C290.9 160.91 229.546 121.414 221.354 115.454C212.099 108.753 202.462 102.382 193.362 95.4776C184.541 88.7854 175.178 79.8229 172.275 68.8127C168.14 53.2711 173.328 36.0878 190.627 31.7118C219.29 24.4614 242.843 51.8356 264.28 66.5128C272.514 72.1502 280.081 79.7268 288.765 84.6009C288.966 84.7374 289.168 84.8721 289.371 85.005C290.255 85.583 290.791 86.0283 291.744 85.8333C292.143 85.0245 291.96 85.1094 291.74 83.9844C286.686 73.4094 281.035 63.781 275.213 53.6333C269.957 44.4704 265.457 35.2084 258.84 26.8469C252.72 19.113 244.754 17.2445 235.22 17.0549C223.876 16.8292 212.516 16.9767 201.179 16.9774L135.933 16.9776L68.1033 16.9777C56.4349 16.9771 44.6744 16.8298 33.0193 17.043C24.4227 17.2003 18.2929 18.3913 17.4297 28.1773C16.7306 36.103 16.9577 43.8989 16.9597 51.8943L16.964 81.2594L16.9635 172.592L16.9636 390.662L16.964 462.957C16.964 475.658 16.9171 488.388 17.0163 501.088C17.0894 504.911 17.6131 508.885 19.3441 512.338C20.2854 514.216 22.1615 515.204 24.1157 515.729C26.8012 516.451 29.7043 516.925 32.4938 516.991C37.9233 517.12 43.3928 517.064 48.8255 517.061L74.5936 517.047L161.448 517.049L386.203 517.052L460.674 517.05C473.891 517.05 487.152 517.079 500.33 517.003C504.118 516.981 511.952 516.24 514.169 513.157C517.656 508.308 517.061 497.021 517.058 491.496L517.045 475.483L517.041 428.923L517.038 381.188C517.039 371.681 517.197 362.479 516.658 352.994C515.772 337.426 507.085 328.013 495.186 319.043C494.212 318.309 492.72 317.553 491.472 317.534L491.048 317.919C491.048 319.339 494.133 323.888 494.977 325.428C500.88 335.893 505.586 343.53 506.913 355.677C510.213 385.871 478.752 394.741 459.434 375.21C453.336 369.045 448.714 361.766 443.767 354.689C434.084 340.784 424.746 326.641 415.764 312.272C412.082 306.469 407.39 297.041 402.803 292.656C400.044 298.091 399.53 309.219 398.95 315.578L394.928 359.479C393.458 374.271 393.101 390.22 387.257 403.943C379.594 421.937 352.459 424.255 342.552 407.292C333.768 392.25 338.449 371.932 341.175 355.798C343.313 343.146 346.156 330.743 348.335 318.109C350.378 307.033 352.397 299.556 352.739 288.094Z"/><path fill="#CC7C5F" d="M402.803 292.656C407.39 297.041 412.082 306.469 415.764 312.272C424.746 326.641 434.084 340.784 443.767 354.689C448.714 361.766 453.336 369.045 459.434 375.21C478.752 394.741 510.213 385.871 506.913 355.677C505.586 343.53 500.88 335.893 494.977 325.428C494.133 323.888 491.048 319.339 491.048 317.919L491.472 317.534C492.72 317.553 494.212 318.309 495.186 319.043C507.085 328.013 515.772 337.426 516.658 352.994C517.197 362.479 517.039 371.681 517.038 381.188L517.041 428.923L517.045 475.483L517.058 491.496C517.061 497.021 517.656 508.308 514.169 513.157C511.952 516.24 504.118 516.981 500.33 517.003C487.152 517.079 473.891 517.05 460.674 517.05L386.203 517.052L161.448 517.049L74.5936 517.047L48.8255 517.061C43.3928 517.064 37.9233 517.12 32.4938 516.991C29.7043 516.925 26.8012 516.451 24.1157 515.729C22.1615 515.204 20.2854 514.216 19.3441 512.338C17.6131 508.885 17.0894 504.911 17.0163 501.088C16.9171 488.388 16.964 475.658 16.964 462.957L16.9636 390.662L16.9635 172.592L16.964 81.2594L16.9597 51.8943C16.9577 43.8989 16.7306 36.103 17.4297 28.1773C18.2929 18.3913 24.4227 17.2003 33.0193 17.043C44.6744 16.8298 56.4349 16.9771 68.1033 16.9777L135.933 16.9776L201.179 16.9774C212.516 16.9767 223.876 16.8292 235.22 17.0549C244.754 17.2445 252.72 19.113 258.84 26.8469C265.457 35.2084 269.957 44.4704 275.213 53.6333C281.035 63.781 286.686 73.4094 291.74 83.9844C291.96 85.1094 292.143 85.0245 291.744 85.8333C290.791 86.0283 290.255 85.583 289.371 85.005C289.168 84.8721 288.966 84.7374 288.765 84.6009C280.081 79.7268 272.514 72.1502 264.28 66.5128C242.843 51.8356 219.29 24.4614 190.627 31.7118C173.328 36.0878 168.14 53.2711 172.275 68.8127C175.178 79.8229 184.541 88.7854 193.362 95.4776C202.462 102.382 212.099 108.753 221.354 115.454C229.546 121.414 290.9 160.91 292.026 164.269C291.06 164.997 291.202 164.313 289.644 165.446C286.395 165.78 281.846 165.261 278.491 164.99L262.645 163.679C242.09 161.851 221.512 160.279 200.917 158.963C193.231 158.391 185.536 157.963 177.834 157.68C167.375 157.323 153.476 157.129 146.133 166.016C138.896 174.776 140.347 189.07 149.515 195.94C160.616 204.357 177.01 204.087 190.339 205.105C198.376 205.72 206.541 205.991 214.563 206.302L249.875 207.541C252.46 207.622 255.039 207.79 257.626 207.926C269.33 208.542 281.352 207.097 292.944 208.92C293.936 209.076 295.217 209.77 296.106 210.25C291.935 213.878 289.147 215.175 284.356 217.958L271.66 225.319C256.216 233.99 240.947 242.968 225.861 252.247C211.174 261.403 187.28 274.519 186.14 293.777C184.7 318.124 210.177 322.903 228.724 315.148C242.591 309.351 253.757 300.733 266.327 292.73C275.452 286.92 284.749 280.432 294.175 275.161C295.001 274.675 295.581 274.193 296.513 274.199L296.798 274.565C296.647 275.622 296.416 275.869 295.861 276.821C294.146 280.913 288.693 287.294 285.76 291.12L265.415 317.152C254.298 331.36 232.158 354.274 243.49 374.378C243.945 375.185 245.451 377.48 246.098 377.99C265.918 393.587 284.616 374.164 297.071 359.367C309.196 345.459 319.707 331.743 330.478 316.936L342.491 300.58C346.244 295.559 348.255 292.522 352.739 288.094C352.397 299.556 350.378 307.033 348.335 318.109C346.156 330.743 343.313 343.146 341.175 355.798C338.449 371.932 333.768 392.25 342.552 407.292C352.459 424.255 379.594 421.937 387.257 403.943C393.101 390.22 393.458 374.271 394.928 359.479L398.95 315.578C399.53 309.219 400.044 298.091 402.803 292.656ZM83.2725 487.747C92.1604 481.832 99.3177 473.568 106.883 466.038C118.987 453.991 131.248 441.905 142.736 429.283C152.439 418.623 164.673 410.653 167.756 395.572C171.714 376.209 159.318 365.418 147.103 353.201L125.305 331.407L101.905 308.017C90.7123 296.81 78.9614 282.582 61.1881 284.822C33.9081 288.901 26.4496 317.059 42.1649 337.479C45.6143 341.961 49.6426 345.347 53.4944 349.389C63.8154 360.218 74.9116 370.794 84.3238 382.388C86.6968 385.312 87.9477 389.954 85.6845 393.195C81.4681 399.8 75.5445 405.589 70.0037 411.124L54.6099 426.495C42.8634 438.228 31.4916 450.116 34.3932 468.119C35.5911 475.551 39.9167 483.129 46.0836 487.476C53.182 492.444 61.9831 494.342 70.4979 492.74C75.11 491.906 79.2879 490.172 83.2725 487.747ZM309.768 490.991C312.488 490.814 316.777 490.402 318.607 488.117C322.088 483.01 320.892 474.781 320.872 468.853C320.865 466.707 319.58 462.173 317.966 461.207C312.668 458.035 302.738 458.996 296.731 458.998L270.542 459.009L193.812 459.028C184.213 459.504 182.083 462.21 182.036 471.885C182.013 476.66 181.306 483.71 184.231 488.019C187.591 492.063 201.158 491.017 205.94 491.016L231.748 491.007L309.768 490.991Z"/><path fill="#C07054" d="M294.175 275.161C295.001 274.675 295.581 274.193 296.513 274.199L296.798 274.565C296.647 275.622 296.416 275.869 295.861 276.821L294.175 275.161Z"/><path fill="#C07054" d="M291.74 83.9844C291.96 85.1094 292.143 85.0245 291.744 85.8333C290.791 86.0283 290.255 85.583 289.371 85.005C289.168 84.8721 288.966 84.7374 288.765 84.6009C289.964 84.0632 290.42 84.4999 291.74 83.9844Z"/><path fill="#91533B" d="M61.1881 284.822C78.9614 282.582 90.7123 296.81 101.905 308.017L125.305 331.407L147.103 353.201C159.318 365.418 171.714 376.209 167.756 395.572C164.673 410.653 152.439 418.623 142.736 429.283C131.248 441.905 118.987 453.991 106.883 466.038C99.3177 473.568 92.1604 481.832 83.2725 487.747C79.2879 490.172 75.11 491.906 70.4979 492.74C61.9831 494.342 53.182 492.444 46.0836 487.476C39.9167 483.129 35.5911 475.551 34.3932 468.119C31.4916 450.116 42.8634 438.228 54.6099 426.495L70.0037 411.124C75.5445 405.589 81.4681 399.8 85.6845 393.195C87.9477 389.954 86.6968 385.312 84.3238 382.388C74.9116 370.794 63.8154 360.218 53.4944 349.389C49.6426 345.347 45.6143 341.961 42.1649 337.479C26.4496 317.059 33.9081 288.901 61.1881 284.822ZM41.1273 463.006C43.1351 471.116 44.8898 471.764 50.5671 477.561C57.9158 485.065 64.0088 489.447 73.6255 482.101C81.1295 475.453 88.0145 468.119 95.1107 461.042C97.2705 458.888 99.1547 456.333 101.341 454.176C115.987 439.726 130.253 424.911 144.856 410.427C149.361 405.958 153.966 401.414 158.054 396.586C163.903 390.016 160.618 383.11 155.005 377.84C151.318 374.379 147.206 369.403 143.283 366.174C137.875 361.724 134.311 357.232 129.5 352.316C118.733 341.402 107.852 330.601 96.8616 319.913C91.5325 314.713 86.3562 309.264 81.0332 304.079C76.9038 300.056 70.5142 292.124 64.5311 292.007C63.6209 291.996 62.7107 292.028 61.8036 292.103C55.4508 294.251 51.0523 300.316 46.3038 304.784C42.2681 308.581 40.4997 313.932 42.1947 319.274C43.6634 322.887 46.9235 325.771 49.5422 328.474C65.4981 344.944 81.6553 361.176 97.7945 377.46C98.7112 378.615 99.7885 379.725 100.647 380.927C102.807 383.952 106.567 387.541 104.399 391.508C101.186 397.39 95.6139 402.172 90.9072 406.959C74.9787 423.158 58.1823 438.794 43.5249 456.156C42.3592 457.538 41.6532 461.189 41.1273 463.006Z"/><path fill="#91533B" d="M218.804 447.035L266.724 447.012C275.932 447.014 284.952 446.851 294.138 447.487C298.822 447.668 303.336 448.021 307.931 448.925C320.305 451.361 329.742 460.957 329.928 473.918C330.036 481.459 328.389 487.191 323.126 492.912C315.697 500.989 304.987 502.075 294.628 502.467C291.357 502.602 288.107 502.893 284.762 502.976L236.172 502.99C227.422 502.991 218.982 503.118 210.244 502.579C199.62 501.925 190.06 501.924 181.569 494.558C170.801 485.359 170.209 467.65 179.668 457.307C189.301 446.774 205.51 447.565 218.804 447.035ZM309.768 490.991C312.488 490.814 316.777 490.402 318.607 488.117C322.088 483.01 320.892 474.781 320.872 468.853C320.865 466.707 319.58 462.173 317.966 461.207C312.668 458.035 302.738 458.996 296.731 458.998L270.542 459.009L193.812 459.028C184.213 459.504 182.083 462.21 182.036 471.885C182.013 476.66 181.306 483.71 184.231 488.019C187.591 492.063 201.158 491.017 205.94 491.016L231.748 491.007L309.768 490.991Z"/><path fill="#91533B" d="M331.881 9.19156C338.283 8.59484 348.363 8.94059 354.911 9.0112C363.319 9.10187 376.843 7.9019 384.333 10.8467C391.042 13.4842 387.727 32.5558 387.2 38.3286L383.207 78.5208C382.894 81.6686 383.197 84.9212 382.91 88.0075C382.421 93.2793 381.844 98.5616 381.293 103.828C380.708 109.421 380.915 116.112 378.271 121.222C371.819 129.033 367.233 110.408 365.634 106.639C354.839 81.195 340.175 57.6366 328.69 32.4661C326.843 28.4178 324.328 24.4545 323.231 20.1093C321.319 10.8597 324.346 10.5723 331.881 9.19156Z"/><path fill="#CC7C5F" d="M347.41 21.2244C349.681 21.0607 353.485 20.9342 355.765 21.008C360.505 21.1614 369.469 20.7565 372.858 24.2669C375.264 26.759 375.773 32.5459 375.498 35.6708C374.954 41.8628 372.116 82.2342 370.157 84.0567L369.554 83.81C367.039 81.1894 366.194 78.624 364.426 75.5732C359.357 66.823 355.267 57.6462 350.256 48.8623C347.645 44.284 345.067 38.977 343.046 34.1146C340.178 27.2175 337.128 22.058 347.41 21.2244Z"/><path fill="#91533B" d="M434.295 9.18862C436.683 8.93057 440.764 9.02657 443.22 9.02465L458.821 9.02185L474.535 9.02534C482.144 9.01569 500.624 7.85394 490.321 20.7576C484.721 27.7713 478.034 33.8111 472.317 40.6793C460.972 54.3088 450.48 68.5441 439.293 82.3059C432.828 90.625 426.103 99.2251 419.525 107.463C417.083 110.52 410.805 113.326 409.144 107.992C408.832 106.989 409.036 104.745 408.967 103.652C409.109 97.3111 410.496 90.7431 411.541 84.4938L417.325 51.7214C419.189 41.2552 420.606 30.4956 422.916 20.1318C423.456 17.7096 424.814 14.8132 426.11 12.6992C427.592 10.2803 431.606 9.75428 434.295 9.18862Z"/><path fill="#CC7C5F" d="M456.718 20.9881C461.72 20.9576 465.906 20.3447 470.274 22.7884C468.666 27.2598 463.365 32.5816 460.18 36.3572C457.159 39.9291 454.176 43.5331 451.232 47.1685L433.131 70.0507C432.04 71.4501 427.989 77.0281 426.424 77.0108C426.248 76.635 426.154 76.3123 426.119 75.8967C425.575 69.5051 431.257 39.1361 433.445 32.2766C434.172 29.9974 435.293 27.1292 436.946 25.3652C441.329 20.6851 450.8 21.0671 456.718 20.9881Z"/><path fill="#91533B" d="M518.652 68.1075C520.262 67.9378 521.36 67.6273 522.743 68.4619C526.657 73.6753 524.457 103.87 525.006 111.633C525.433 117.681 524.831 127.082 524.768 133.456C524.746 135.695 523.522 141.788 521.597 143.478C515.701 147.428 504.534 148.9 497.967 150.363L484.847 153.186C480.721 154.087 471.811 156.145 467.731 155.953C466.694 155.698 465.641 155.436 464.624 155.116C460.483 153.813 461.267 148.211 462.576 145.097C464.886 139.599 468.685 134.423 471.994 129.448C478.005 120.263 484.305 111.27 490.885 102.484C499.196 91.4164 507.928 80.4303 516.372 69.4638C516.785 68.9276 518.029 68.379 518.652 68.1075Z"/><path fill="#CC7C5F" d="M511.483 96.9462L511.682 97.1836C511.74 97.605 511.781 97.7977 511.942 98.1908C513.309 101.62 513.077 106.222 513.038 109.866C512.949 118.197 513.944 131.355 504.796 135.46C498.934 138.091 490.892 139.594 484.664 140.643C483.804 140.339 483.083 140.172 482.394 139.585C482.208 138.737 482.191 138.135 482.433 137.292C483.748 132.708 504.88 104.017 508.626 99.7399C509.251 99.0225 510.003 98.4263 510.844 97.9808C511.246 97.7674 511.196 97.558 511.483 96.9462Z"/><path fill="#91533B" d="M449.879 220.102C459.756 219.454 470.15 223.391 479.816 225.381C492.202 228.022 504.384 230.61 516.443 234.596C526.206 237.391 525.061 250.68 524.99 258.935C524.922 266.857 525.434 276.381 524.489 284.33C524.187 286.869 523.02 288.667 521.178 290.421C515.671 293.595 490.871 266.679 485.314 262.751C483.535 261.494 479.422 256.728 477.306 254.877C470.243 248.699 463.072 242.558 456.385 235.982C453.131 232.706 442.778 224.123 449.879 220.102Z"/><path fill="#CC7C5F" d="M480.51 238.292C488.628 239.3 498.252 241.633 505.542 245.433C511.686 248.636 514.889 261.116 511.351 266.89C510.935 267.008 510.427 267.153 509.988 267.126C507.01 266.945 482.81 243.447 479.432 239.533C479.537 238.812 479.725 238.906 480.51 238.292Z"/><path fill="#91533B" d="M512.757 180.023C513.825 179.941 514.894 179.874 515.963 179.82C518.024 179.728 520.284 179.632 521.855 181.191C524.288 183.607 524.961 189.202 524.959 192.5C524.957 195.89 524.306 201.094 521.764 203.543C520.019 205.224 516.707 205.38 514.316 205.514C511.341 205.681 507.792 205.048 504.661 205.032C497.631 204.996 490.576 205.059 483.551 204.961C481.058 204.927 477.88 204.324 475.326 204.177C472.474 204.013 469.6 203.958 466.743 203.888C463.361 203.379 447.666 201.793 454.847 194.133C455.717 193.685 457.445 192.984 458.319 192.757C474.356 188.591 490.627 185.255 506.719 181.266C508.716 180.771 510.73 180.322 512.757 180.023Z"/></svg>